<svg width="170" height="170" viewBox="0 0 170 170" fill="none" xmlns="http://www.w3.org/2000/svg">
<g clip-path="url(#clip0)">
<rect width="170" height="170" fill="black"/>
<path d="M84.0625 73.8594L85.9844 75.3125L85.5156 76.2969C84.3594 78.6094 82.8281 80.4531 80.9219 81.8281C79.0469 83.1719 76.9844 83.8438 74.7344 83.8438C74.0781 83.8438 73.3906 83.7812 72.6719 83.6562C71.9844 83.5 71.2969 83.2812 70.6094 83V118.531L65.8281 119C65.4531 113.719 65.125 108.016 64.8438 101.891C64.7188 99.2656 64.5938 96.4219 64.4688 93.3594C64.375 90.2969 64.2812 87.0781 64.1875 83.7031C64.0938 80.2969 64.0312 76.7656 64 73.1094C63.9375 69.4219 63.9062 65.6719 63.9062 61.8594C63.9062 55.8594 64.2344 50.5625 64.8906 45.9688C65.5469 41.375 66.4219 37.5156 67.5156 34.3906C68.6406 31.2656 69.9219 28.9062 71.3594 27.3125C72.7969 25.7188 74.3125 24.9219 75.9062 24.9219C76.5 24.9219 77.0625 25.0312 77.5938 25.25C78.125 25.4375 78.5781 25.75 78.9531 26.1875C79.3594 26.625 79.6719 27.2188 79.8906 27.9688C80.1094 28.7188 80.2188 29.625 80.2188 30.6875C80.2188 33.375 79.9062 36.3438 79.2812 39.5938C78.6562 42.8125 77.8594 46.0781 76.8906 49.3906C75.9531 52.7031 74.9219 55.9531 73.7969 59.1406C72.6719 62.2969 71.6094 65.1562 70.6094 67.7188V78.2188C70.8906 78.5938 71.2188 78.9219 71.5938 79.2031C72 79.4844 72.4219 79.7188 72.8594 79.9062C73.3281 80.0625 73.7969 80.1875 74.2656 80.2812C74.7344 80.375 75.1562 80.4219 75.5312 80.4219C77.1562 80.4219 78.6562 80 80.0312 79.1562C81.4062 78.3125 82.5938 76.875 83.5938 74.8438L84.0625 73.8594ZM70.6094 61.6719C71.3906 59.4531 72.125 57.1406 72.8125 54.7344C73.5 52.3281 74.1094 49.9062 74.6406 47.4688C75.1719 45 75.5938 42.5469 75.9062 40.1094C76.2188 37.6719 76.375 35.3281 76.375 33.0781C76.375 31.6406 76.2344 30.4844 75.9531 29.6094C75.6719 28.7344 75.1406 28.2969 74.3594 28.2969C73.6719 28.2969 73.0781 29 72.5781 30.4062C72.1094 31.8125 71.7188 33.7188 71.4062 36.125C71.125 38.5 70.9219 41.2969 70.7969 44.5156C70.6719 47.7031 70.6094 51.0938 70.6094 54.6875V61.6719ZM90.2031 65.4219C90.7344 64.2656 91.375 63.1562 92.125 62.0938C92.875 61.0312 93.7344 60.0938 94.7031 59.2812C95.6719 58.4688 96.75 57.8281 97.9375 57.3594C99.125 56.8594 100.422 56.6094 101.828 56.6094C103.703 56.6094 105.359 57.0625 106.797 57.9688C108.234 58.8438 109.438 60.0312 110.406 61.5312C111.375 63 112.109 64.7188 112.609 66.6875C113.109 68.625 113.359 70.6406 113.359 72.7344C113.359 75.9531 113.031 78.8594 112.375 81.4531C111.75 84.0156 110.891 86.2656 109.797 88.2031C111.484 86.9219 113.188 85.2188 114.906 83.0938C116.656 80.9688 118.375 78.2188 120.062 74.8438L120.531 73.8594L122.453 75.3125L121.984 76.2969C120.547 79.1719 118.969 81.7656 117.25 84.0781C115.531 86.3906 113.703 88.3594 111.766 89.9844C109.859 91.5781 107.859 92.8125 105.766 93.6875C103.672 94.5625 101.531 95 99.3438 95C97.4062 95 95.6094 94.5781 93.9531 93.7344C92.3281 92.8906 91.0781 91.8438 90.2031 90.5938V112.766C90.2031 113.953 90.1094 114.938 89.9219 115.719C89.7656 116.531 89.4844 117.172 89.0781 117.641C88.7031 118.141 88.1875 118.484 87.5312 118.672C86.875 118.891 86.0781 119 85.1406 119C84.4219 119 83.9219 118.875 83.6406 118.625C83.3594 118.406 83.2188 118.047 83.2188 117.547C83.2188 117.328 83.25 116.938 83.3125 116.375C83.375 115.812 83.4375 114.953 83.5 113.797C83.5625 112.672 83.625 111.172 83.6875 109.297C83.75 107.453 83.7812 105.094 83.7812 102.219V76.2969C83.7812 72.8281 83.7656 70.0625 83.7344 68C83.7031 65.9062 83.6719 64.2812 83.6406 63.125C83.6094 61.9375 83.5781 61.0938 83.5469 60.5938C83.5156 60.0938 83.5 59.6562 83.5 59.2812C83.5 58.9688 83.6562 58.6562 83.9688 58.3438C84.2812 58.0312 84.6875 57.75 85.1875 57.5C85.6875 57.25 86.2188 57.0469 86.7812 56.8906C87.375 56.7031 87.9375 56.6094 88.4688 56.6094C89 56.6094 89.4219 56.75 89.7344 57.0312C90.0469 57.3125 90.2031 57.8125 90.2031 58.5312V65.4219ZM99.3438 60.7344C98.0312 60.7344 96.8125 61.1875 95.6875 62.0938C94.5938 63 93.6406 64.1719 92.8281 65.6094C92.0469 67.0156 91.4219 68.5781 90.9531 70.2969C90.5156 72.0156 90.2969 73.6875 90.2969 75.3125V80.7031C90.2969 82.3906 90.5156 83.9219 90.9531 85.2969C91.4219 86.6719 92.0312 87.8438 92.7812 88.8125C93.5312 89.7812 94.4062 90.5312 95.4062 91.0625C96.4375 91.5625 97.5156 91.8125 98.6406 91.8125C101.297 91.8125 103.297 90.4375 104.641 87.6875C106.016 84.9375 106.703 80.625 106.703 74.75C106.703 72.75 106.562 70.8906 106.281 69.1719C106 67.4531 105.562 65.9688 104.969 64.7188C104.375 63.4688 103.609 62.5 102.672 61.8125C101.734 61.0938 100.625 60.7344 99.3438 60.7344Z" fill="white"/>
<path d="M56.7617 138.036L57.1221 138.309L57.0342 138.493C56.8174 138.927 56.5303 139.272 56.1729 139.53C55.8213 139.782 55.4346 139.908 55.0127 139.908C54.8896 139.908 54.7607 139.896 54.626 139.873C54.4971 139.844 54.3682 139.803 54.2393 139.75V146.412L53.3428 146.5C53.2725 145.51 53.2109 144.44 53.1582 143.292C53.1348 142.8 53.1113 142.267 53.0879 141.692C53.0703 141.118 53.0527 140.515 53.0352 139.882C53.0176 139.243 53.0059 138.581 53 137.896C52.9883 137.204 52.9824 136.501 52.9824 135.786C52.9824 134.661 53.0439 133.668 53.167 132.807C53.29 131.945 53.4541 131.222 53.6592 130.636C53.8701 130.05 54.1104 129.607 54.3799 129.309C54.6494 129.01 54.9336 128.86 55.2324 128.86C55.3438 128.86 55.4492 128.881 55.5488 128.922C55.6484 128.957 55.7334 129.016 55.8037 129.098C55.8799 129.18 55.9385 129.291 55.9795 129.432C56.0205 129.572 56.041 129.742 56.041 129.941C56.041 130.445 55.9824 131.002 55.8652 131.611C55.748 132.215 55.5986 132.827 55.417 133.448C55.2412 134.069 55.0479 134.679 54.8369 135.276C54.626 135.868 54.4268 136.404 54.2393 136.885V138.854C54.292 138.924 54.3535 138.985 54.4238 139.038C54.5 139.091 54.5791 139.135 54.6611 139.17C54.749 139.199 54.8369 139.223 54.9248 139.24C55.0127 139.258 55.0918 139.267 55.1621 139.267C55.4668 139.267 55.748 139.188 56.0059 139.029C56.2637 138.871 56.4863 138.602 56.6738 138.221L56.7617 138.036ZM54.2393 135.751C54.3857 135.335 54.5234 134.901 54.6523 134.45C54.7812 133.999 54.8955 133.545 54.9951 133.088C55.0947 132.625 55.1738 132.165 55.2324 131.708C55.291 131.251 55.3203 130.812 55.3203 130.39C55.3203 130.12 55.2939 129.903 55.2412 129.739C55.1885 129.575 55.0889 129.493 54.9424 129.493C54.8135 129.493 54.7021 129.625 54.6084 129.889C54.5205 130.152 54.4473 130.51 54.3887 130.961C54.3359 131.406 54.2979 131.931 54.2744 132.534C54.251 133.132 54.2393 133.768 54.2393 134.441V135.751ZM64.127 138.309L64.0303 138.493C63.8311 138.892 63.5645 139.211 63.2305 139.451C62.9023 139.686 62.5449 139.838 62.1582 139.908C62.0527 140.207 61.915 140.485 61.7451 140.743C61.5811 140.995 61.3906 141.215 61.1738 141.402C60.9629 141.59 60.7227 141.736 60.4531 141.842C60.1895 141.947 59.9023 142 59.5918 142C59.1406 142 58.7334 141.906 58.3701 141.719C58.0127 141.525 57.708 141.268 57.4561 140.945C57.2041 140.617 57.0107 140.236 56.876 139.803C56.7412 139.363 56.6738 138.895 56.6738 138.396C56.6738 137.963 56.7236 137.57 56.8232 137.219C56.9229 136.861 57.0488 136.545 57.2012 136.27C57.3535 135.988 57.5234 135.745 57.7109 135.54C57.8984 135.329 58.083 135.156 58.2646 135.021C58.4463 134.887 58.6104 134.787 58.7568 134.723C58.9092 134.652 59.0234 134.617 59.0996 134.617L59.2139 134.925C58.9736 135.101 58.7598 135.347 58.5723 135.663C58.4082 135.933 58.2588 136.29 58.124 136.735C57.9951 137.181 57.9307 137.734 57.9307 138.396C57.9307 138.801 57.9688 139.193 58.0449 139.574C58.1211 139.955 58.2324 140.292 58.3789 140.585C58.5254 140.878 58.7041 141.112 58.915 141.288C59.1318 141.464 59.375 141.552 59.6445 141.552C60.0137 141.552 60.3184 141.405 60.5586 141.112C60.8047 140.813 60.9863 140.406 61.1035 139.891C60.7988 139.826 60.5088 139.706 60.2334 139.53C59.958 139.354 59.7148 139.138 59.5039 138.88C59.293 138.616 59.123 138.314 58.9941 137.975C58.8711 137.635 58.8096 137.266 58.8096 136.867C58.8096 136.539 58.8506 136.252 58.9326 136.006C59.0205 135.754 59.1348 135.546 59.2754 135.382C59.416 135.212 59.5771 135.086 59.7588 135.004C59.9463 134.916 60.1426 134.872 60.3477 134.872C60.5879 134.872 60.834 134.942 61.0859 135.083C61.3379 135.218 61.5664 135.423 61.7715 135.698C61.9766 135.968 62.1436 136.308 62.2725 136.718C62.4014 137.128 62.4658 137.605 62.4658 138.15C62.4658 138.355 62.4541 138.558 62.4307 138.757C62.4072 138.956 62.3721 139.149 62.3252 139.337C62.6064 139.255 62.8613 139.123 63.0898 138.941C63.3242 138.76 63.5176 138.52 63.6699 138.221L63.7666 138.036L64.127 138.309ZM59.3896 136.797C59.3896 137.143 59.4365 137.462 59.5303 137.755C59.6299 138.042 59.7617 138.297 59.9258 138.52C60.0898 138.736 60.2803 138.918 60.4971 139.064C60.7139 139.211 60.9453 139.313 61.1914 139.372C61.2207 139.208 61.2383 139.038 61.2441 138.862C61.2559 138.681 61.2617 138.496 61.2617 138.309C61.2617 137.893 61.2295 137.518 61.165 137.184C61.1006 136.844 61.0156 136.557 60.9102 136.322C60.8047 136.082 60.6816 135.897 60.541 135.769C60.4004 135.64 60.2568 135.575 60.1104 135.575C59.9111 135.575 59.7412 135.684 59.6006 135.9C59.46 136.111 59.3896 136.41 59.3896 136.797ZM63.6875 138.221L63.7754 138.036C63.8633 137.86 63.9424 137.679 64.0127 137.491C64.0889 137.304 64.1533 137.128 64.2061 136.964C64.2588 136.794 64.2998 136.645 64.3291 136.516C64.3584 136.381 64.3789 136.278 64.3906 136.208C64.2383 136.19 64.0918 136.152 63.9512 136.094C63.8105 136.035 63.6875 135.956 63.582 135.856C63.4766 135.757 63.3945 135.64 63.3359 135.505C63.2715 135.37 63.2393 135.218 63.2393 135.048C63.2393 134.913 63.2627 134.793 63.3096 134.688C63.3564 134.582 63.4209 134.494 63.5029 134.424C63.5791 134.354 63.667 134.301 63.7666 134.266C63.8604 134.225 63.96 134.204 64.0654 134.204C64.2061 134.204 64.3291 134.233 64.4346 134.292C64.54 134.351 64.6279 134.43 64.6982 134.529C64.7686 134.623 64.8213 134.734 64.8564 134.863C64.8916 134.986 64.9092 135.115 64.9092 135.25C65.0732 135.25 65.249 135.227 65.4365 135.18C65.6299 135.133 65.8232 135.083 66.0166 135.03C66.21 134.972 66.4004 134.919 66.5879 134.872C66.7754 134.825 66.9482 134.802 67.1064 134.802C67.2412 134.802 67.3496 134.831 67.4316 134.89C67.5137 134.942 67.5547 135.033 67.5547 135.162C67.5547 135.256 67.5254 135.411 67.4668 135.628C67.4141 135.845 67.3467 136.097 67.2646 136.384C67.1826 136.671 67.0918 136.984 66.9922 137.324C66.8984 137.658 66.8105 137.998 66.7285 138.344C66.6465 138.684 66.5762 139.015 66.5176 139.337C66.4648 139.659 66.4385 139.946 66.4385 140.198C66.4385 140.515 66.4736 140.729 66.5439 140.84C66.6143 140.951 66.7402 141.007 66.9219 141.007C66.998 141.007 67.0918 140.975 67.2031 140.91C67.3203 140.84 67.4609 140.708 67.625 140.515C67.7891 140.315 67.9824 140.034 68.2051 139.671C68.4336 139.302 68.6973 138.818 68.9961 138.221L69.084 138.036L69.4443 138.309L69.3564 138.493C69.0049 139.196 68.6914 139.773 68.416 140.225C68.1406 140.676 67.8857 141.033 67.6514 141.297C67.4229 141.561 67.2061 141.745 67.001 141.851C66.7959 141.95 66.5908 142 66.3857 142C66.04 142 65.7588 141.868 65.542 141.604C65.3252 141.341 65.2168 140.934 65.2168 140.383C65.2168 140.084 65.2578 139.773 65.3398 139.451C65.4219 139.129 65.5244 138.81 65.6475 138.493C65.7705 138.171 65.9082 137.854 66.0605 137.544C66.2129 137.233 66.3564 136.94 66.4912 136.665C66.6318 136.384 66.7578 136.123 66.8691 135.883C66.9805 135.643 67.0596 135.432 67.1064 135.25L67.0537 135.197C66.96 135.197 66.834 135.247 66.6758 135.347C66.5176 135.446 66.3389 135.561 66.1396 135.689C65.9463 135.812 65.7383 135.93 65.5156 136.041C65.293 136.152 65.0674 136.22 64.8389 136.243C64.8271 136.325 64.8008 136.445 64.7598 136.604C64.7246 136.762 64.6748 136.938 64.6104 137.131C64.5459 137.324 64.4727 137.523 64.3906 137.729C64.3086 137.934 64.2236 138.127 64.1357 138.309L64.0479 138.493L63.6875 138.221ZM64.1182 134.696C64.0654 134.696 64.0215 134.714 63.9863 134.749C63.9512 134.784 63.9336 134.825 63.9336 134.872C63.9336 134.942 63.9512 135.004 63.9863 135.057C64.0215 135.104 64.0654 135.145 64.1182 135.18C64.1709 135.209 64.2236 135.232 64.2764 135.25C64.335 135.262 64.3848 135.268 64.4258 135.268C64.4258 135.104 64.3994 134.969 64.3467 134.863C64.2939 134.752 64.2178 134.696 64.1182 134.696ZM71.9492 135.426C71.7793 135.426 71.6152 135.487 71.457 135.61C71.3047 135.728 71.1582 135.892 71.0176 136.103C70.877 136.308 70.7393 136.551 70.6045 136.832C70.4756 137.107 70.3467 137.403 70.2178 137.72V137.825C70.2002 138.341 70.1826 138.889 70.165 139.469C70.1533 140.049 70.1475 140.682 70.1475 141.367C70.1475 141.484 70.1064 141.584 70.0244 141.666C69.9482 141.742 69.8574 141.807 69.752 141.859C69.6465 141.906 69.5381 141.941 69.4268 141.965C69.3154 141.988 69.2246 142 69.1543 142C69.0664 142 68.9844 141.974 68.9082 141.921C68.832 141.868 68.7939 141.751 68.7939 141.569C68.7939 141.481 68.8027 141.373 68.8203 141.244C68.8379 141.109 68.8613 140.966 68.8906 140.813C68.9141 140.661 68.9434 140.506 68.9785 140.348C69.0078 140.184 69.0371 140.031 69.0664 139.891C69.0664 139.393 69.0664 138.944 69.0664 138.546C69.0605 138.147 69.0576 137.793 69.0576 137.482C69.0576 137.172 69.0576 136.899 69.0576 136.665C69.0518 136.431 69.0488 136.229 69.0488 136.059C69.0488 135.777 69.0547 135.572 69.0664 135.443C69.0723 135.309 69.084 135.215 69.1016 135.162C69.1309 135.08 69.1836 135.016 69.2598 134.969C69.3418 134.922 69.4268 134.887 69.5146 134.863C69.6025 134.834 69.6904 134.816 69.7783 134.811C69.8662 134.805 69.9336 134.802 69.9805 134.802C70.0918 134.802 70.165 134.834 70.2002 134.898C70.2354 134.963 70.2529 135.062 70.2529 135.197C70.2529 135.502 70.2529 135.777 70.2529 136.023C70.2529 136.27 70.2471 136.516 70.2354 136.762C70.3467 136.498 70.4756 136.249 70.6221 136.015C70.7744 135.774 70.9414 135.566 71.123 135.391C71.3047 135.209 71.4951 135.065 71.6943 134.96C71.8994 134.854 72.1104 134.802 72.3271 134.802C72.5908 134.802 72.8076 134.857 72.9775 134.969C73.1533 135.074 73.291 135.224 73.3906 135.417C73.4961 135.61 73.5723 135.839 73.6191 136.103C73.6719 136.36 73.707 136.642 73.7246 136.946C73.8887 136.647 74.0645 136.369 74.252 136.111C74.4453 135.848 74.6475 135.619 74.8584 135.426C75.0752 135.232 75.3008 135.08 75.5352 134.969C75.7754 134.857 76.0244 134.802 76.2822 134.802C76.7275 134.802 77.0527 134.942 77.2578 135.224C77.4629 135.499 77.5654 135.874 77.5654 136.349C77.5654 136.647 77.542 136.981 77.4951 137.351C77.4482 137.72 77.3984 138.095 77.3457 138.476C77.293 138.851 77.2432 139.22 77.1963 139.583C77.1494 139.946 77.126 140.277 77.126 140.576C77.126 140.939 77.2168 141.121 77.3984 141.121C77.4922 141.121 77.5947 141.065 77.7061 140.954C77.8174 140.837 77.9434 140.661 78.084 140.427C78.2305 140.187 78.3975 139.885 78.585 139.521C78.7783 139.158 79.001 138.725 79.2529 138.221L79.3408 138.036L79.7012 138.309L79.6133 138.493C79.2676 139.185 78.9717 139.756 78.7256 140.207C78.4854 140.658 78.2686 141.019 78.0752 141.288C77.8818 141.552 77.6973 141.736 77.5215 141.842C77.3516 141.947 77.1611 142 76.9502 142C76.8271 142 76.707 141.982 76.5898 141.947C76.4727 141.912 76.3701 141.851 76.2822 141.763C76.1943 141.675 76.124 141.558 76.0713 141.411C76.0186 141.259 75.9922 141.065 75.9922 140.831C75.9922 140.479 76.0156 140.084 76.0625 139.645C76.1094 139.205 76.1621 138.766 76.2207 138.326C76.2793 137.887 76.332 137.474 76.3789 137.087C76.4258 136.694 76.4492 136.375 76.4492 136.129C76.4492 135.912 76.4023 135.739 76.3086 135.61C76.2148 135.476 76.0742 135.408 75.8867 135.408C75.6992 135.408 75.5029 135.481 75.2979 135.628C75.0986 135.774 74.9023 135.965 74.709 136.199C74.5215 136.428 74.3428 136.686 74.1729 136.973C74.0088 137.26 73.8652 137.544 73.7422 137.825C73.7422 138.44 73.7363 138.979 73.7246 139.442C73.7129 139.899 73.6953 140.286 73.6719 140.603C73.6543 140.919 73.6279 141.171 73.5928 141.358C73.5576 141.54 73.5195 141.663 73.4785 141.728C73.4492 141.769 73.3994 141.807 73.3291 141.842C73.2588 141.877 73.1797 141.906 73.0918 141.93C73.0098 141.953 72.9277 141.971 72.8457 141.982C72.7695 141.994 72.7109 142 72.6699 142C72.5762 142 72.4941 141.974 72.4238 141.921C72.3594 141.862 72.3271 141.751 72.3271 141.587C72.3271 141.511 72.333 141.408 72.3447 141.279C72.3623 141.15 72.3828 141.007 72.4062 140.849C72.4297 140.69 72.4561 140.521 72.4854 140.339C72.5146 140.157 72.5439 139.973 72.5732 139.785C72.5791 139.609 72.585 139.413 72.5908 139.196C72.5967 138.979 72.6025 138.766 72.6084 138.555C72.6143 138.338 72.6172 138.133 72.6172 137.939C72.623 137.74 72.626 137.57 72.626 137.43C72.626 137.131 72.6172 136.858 72.5996 136.612C72.582 136.366 72.5469 136.155 72.4941 135.979C72.4473 135.804 72.3799 135.669 72.292 135.575C72.2041 135.476 72.0898 135.426 71.9492 135.426ZM84.4824 138.941C84.4824 139.34 84.4209 139.724 84.2979 140.093C84.1807 140.456 84.0049 140.781 83.7705 141.068C83.542 141.35 83.2549 141.575 82.9092 141.745C82.5693 141.915 82.1797 142 81.7402 142C81.4238 142 81.1396 141.95 80.8877 141.851C80.6416 141.745 80.4307 141.607 80.2549 141.438C80.0791 141.262 79.9443 141.065 79.8506 140.849C79.7568 140.626 79.71 140.397 79.71 140.163C79.71 139.929 79.7539 139.712 79.8418 139.513C79.9355 139.308 80.0586 139.135 80.2109 138.994C80.3691 138.848 80.5479 138.733 80.7471 138.651C80.9463 138.569 81.1572 138.528 81.3799 138.528C81.5205 138.528 81.667 138.546 81.8193 138.581V138.836C81.6318 138.836 81.4473 138.874 81.2656 138.95C81.0898 139.026 80.9316 139.132 80.791 139.267C80.6562 139.396 80.5479 139.554 80.4658 139.741C80.3838 139.923 80.3428 140.119 80.3428 140.33C80.3428 140.717 80.4746 141.027 80.7383 141.262C81.0078 141.49 81.374 141.604 81.8369 141.604C82.0713 141.604 82.2852 141.561 82.4785 141.473C82.6719 141.379 82.8359 141.253 82.9707 141.095C83.1113 140.931 83.2168 140.737 83.2871 140.515C83.3633 140.292 83.4014 140.049 83.4014 139.785C83.4014 139.533 83.3516 139.299 83.252 139.082C83.1523 138.865 83.0205 138.66 82.8564 138.467C82.6924 138.273 82.5049 138.092 82.2939 137.922C82.0889 137.752 81.8779 137.591 81.6611 137.438C81.4502 137.28 81.2422 137.128 81.0371 136.981C80.832 136.835 80.6533 136.688 80.501 136.542L79.6221 138.493L79.2617 138.221L80.1582 136.261C79.9414 136.056 79.7803 135.862 79.6748 135.681C79.5752 135.493 79.5254 135.271 79.5254 135.013C79.5254 134.872 79.5488 134.74 79.5957 134.617C79.6484 134.488 79.7158 134.38 79.7979 134.292C79.8857 134.198 79.9854 134.125 80.0967 134.072C80.208 134.02 80.3252 133.993 80.4482 133.993C80.6709 133.993 80.8379 134.058 80.9492 134.187C81.0605 134.31 81.1162 134.465 81.1162 134.652C81.1162 134.74 81.1074 134.834 81.0898 134.934C81.0723 135.027 81.0488 135.124 81.0195 135.224C80.9961 135.317 80.9697 135.405 80.9404 135.487C80.917 135.569 80.8965 135.64 80.8789 135.698C81.0547 135.833 81.2656 135.965 81.5117 136.094C81.7578 136.217 82.0127 136.346 82.2764 136.48C82.5459 136.615 82.8125 136.762 83.0762 136.92C83.3398 137.078 83.5742 137.254 83.7793 137.447C83.9902 137.641 84.1602 137.86 84.2891 138.106C84.418 138.353 84.4824 138.631 84.4824 138.941ZM80.4658 134.389C80.3838 134.389 80.3164 134.418 80.2637 134.477C80.2168 134.529 80.1934 134.603 80.1934 134.696C80.1934 134.802 80.2197 134.919 80.2725 135.048C80.3252 135.177 80.4189 135.303 80.5537 135.426C80.6123 135.303 80.6562 135.183 80.6855 135.065C80.7207 134.948 80.7383 134.831 80.7383 134.714C80.7383 134.62 80.7119 134.544 80.6592 134.485C80.6123 134.421 80.5479 134.389 80.4658 134.389ZM86.3545 136.454C86.4541 136.237 86.5742 136.029 86.7148 135.83C86.8555 135.631 87.0166 135.455 87.1982 135.303C87.3799 135.15 87.582 135.03 87.8047 134.942C88.0273 134.849 88.2705 134.802 88.5342 134.802C88.8857 134.802 89.1963 134.887 89.4658 135.057C89.7354 135.221 89.9609 135.443 90.1426 135.725C90.3242 136 90.4619 136.322 90.5557 136.691C90.6494 137.055 90.6963 137.433 90.6963 137.825C90.6963 138.429 90.6348 138.974 90.5117 139.46C90.3945 139.94 90.2334 140.362 90.0283 140.726C90.3447 140.485 90.6641 140.166 90.9863 139.768C91.3145 139.369 91.6367 138.854 91.9531 138.221L92.041 138.036L92.4014 138.309L92.3135 138.493C92.0439 139.032 91.748 139.519 91.4258 139.952C91.1035 140.386 90.7607 140.755 90.3975 141.06C90.04 141.358 89.665 141.59 89.2725 141.754C88.8799 141.918 88.4785 142 88.0684 142C87.7051 142 87.3682 141.921 87.0576 141.763C86.7529 141.604 86.5186 141.408 86.3545 141.174V145.331C86.3545 145.554 86.3369 145.738 86.3018 145.885C86.2725 146.037 86.2197 146.157 86.1436 146.245C86.0732 146.339 85.9766 146.403 85.8535 146.438C85.7305 146.479 85.5811 146.5 85.4053 146.5C85.2705 146.5 85.1768 146.477 85.124 146.43C85.0713 146.389 85.0449 146.321 85.0449 146.228C85.0449 146.187 85.0508 146.113 85.0625 146.008C85.0742 145.902 85.0859 145.741 85.0977 145.524C85.1094 145.313 85.1211 145.032 85.1328 144.681C85.1445 144.335 85.1504 143.893 85.1504 143.354V138.493C85.1504 137.843 85.1475 137.324 85.1416 136.938C85.1357 136.545 85.1299 136.24 85.124 136.023C85.1182 135.801 85.1123 135.643 85.1064 135.549C85.1006 135.455 85.0977 135.373 85.0977 135.303C85.0977 135.244 85.127 135.186 85.1855 135.127C85.2441 135.068 85.3203 135.016 85.4141 134.969C85.5078 134.922 85.6074 134.884 85.7129 134.854C85.8242 134.819 85.9297 134.802 86.0293 134.802C86.1289 134.802 86.208 134.828 86.2666 134.881C86.3252 134.934 86.3545 135.027 86.3545 135.162V136.454ZM88.0684 135.575C87.8223 135.575 87.5938 135.66 87.3828 135.83C87.1777 136 86.999 136.22 86.8467 136.489C86.7002 136.753 86.583 137.046 86.4951 137.368C86.4131 137.69 86.3721 138.004 86.3721 138.309V139.319C86.3721 139.636 86.4131 139.923 86.4951 140.181C86.583 140.438 86.6973 140.658 86.8379 140.84C86.9785 141.021 87.1426 141.162 87.3301 141.262C87.5234 141.355 87.7256 141.402 87.9365 141.402C88.4346 141.402 88.8096 141.145 89.0615 140.629C89.3193 140.113 89.4482 139.305 89.4482 138.203C89.4482 137.828 89.4219 137.479 89.3691 137.157C89.3164 136.835 89.2344 136.557 89.123 136.322C89.0117 136.088 88.8682 135.906 88.6924 135.777C88.5166 135.643 88.3086 135.575 88.0684 135.575ZM94.6338 141.007C94.8389 141.007 95.0469 140.954 95.2578 140.849C95.4746 140.743 95.6914 140.579 95.9082 140.356C96.1309 140.134 96.3594 139.847 96.5938 139.495C96.8281 139.138 97.0684 138.713 97.3145 138.221L97.4023 138.036L97.7627 138.309L97.6748 138.493C97.3584 139.12 97.042 139.656 96.7256 140.102C96.415 140.547 96.1074 140.91 95.8027 141.191C95.5039 141.473 95.208 141.678 94.915 141.807C94.6221 141.936 94.3408 142 94.0713 142C93.6904 142 93.3506 141.921 93.0518 141.763C92.7529 141.604 92.501 141.391 92.2959 141.121C92.0908 140.846 91.9355 140.529 91.8301 140.172C91.7188 139.809 91.6631 139.428 91.6631 139.029C91.6631 138.396 91.751 137.822 91.9268 137.307C92.0967 136.785 92.3252 136.34 92.6123 135.971C92.9053 135.602 93.2363 135.314 93.6055 135.109C93.9746 134.904 94.3584 134.802 94.7568 134.802C95.1611 134.802 95.4688 134.904 95.6797 135.109C95.8965 135.314 96.0049 135.572 96.0049 135.883C96.0049 136.182 95.9199 136.463 95.75 136.727C95.5801 136.984 95.3486 137.239 95.0557 137.491C94.7686 137.737 94.4346 137.983 94.0537 138.229C93.6729 138.47 93.2715 138.719 92.8496 138.977C92.8906 139.281 92.9609 139.56 93.0605 139.812C93.1602 140.058 93.2861 140.271 93.4385 140.453C93.5908 140.629 93.7666 140.767 93.9658 140.866C94.165 140.96 94.3877 141.007 94.6338 141.007ZM94.9062 136.146C94.9062 135.912 94.8418 135.728 94.7129 135.593C94.5898 135.458 94.4375 135.391 94.2559 135.391C94.1035 135.391 93.9424 135.446 93.7725 135.558C93.6025 135.663 93.4473 135.836 93.3066 136.076C93.166 136.311 93.0488 136.612 92.9551 136.981C92.8613 137.351 92.8145 137.799 92.8145 138.326V138.528C93.0137 138.423 93.2334 138.285 93.4736 138.115C93.7197 137.939 93.9482 137.746 94.1592 137.535C94.3701 137.324 94.5459 137.102 94.6865 136.867C94.833 136.627 94.9062 136.387 94.9062 136.146ZM99.1865 142C98.8291 142 98.5186 141.924 98.2549 141.771C97.9971 141.619 97.7832 141.414 97.6133 141.156C97.4434 140.893 97.3174 140.591 97.2354 140.251C97.1533 139.911 97.1123 139.551 97.1123 139.17C97.1123 138.836 97.1445 138.496 97.209 138.15C97.2734 137.805 97.3643 137.471 97.4814 137.148C97.6045 136.82 97.7568 136.516 97.9385 136.234C98.1201 135.947 98.3281 135.698 98.5625 135.487C98.7969 135.276 99.0576 135.109 99.3447 134.986C99.6377 134.863 99.9512 134.802 100.285 134.802C100.666 134.802 100.988 134.887 101.252 135.057C101.521 135.227 101.738 135.435 101.902 135.681C101.908 134.573 101.964 133.595 102.069 132.745C102.175 131.896 102.321 131.184 102.509 130.609C102.702 130.035 102.931 129.602 103.194 129.309C103.458 129.01 103.748 128.86 104.064 128.86C104.176 128.86 104.275 128.875 104.363 128.904C104.457 128.928 104.533 128.975 104.592 129.045C104.656 129.115 104.703 129.212 104.732 129.335C104.768 129.452 104.785 129.604 104.785 129.792C104.785 130.179 104.747 130.624 104.671 131.128C104.595 131.626 104.486 132.171 104.346 132.763C104.205 133.349 104.032 133.976 103.827 134.644C103.628 135.306 103.405 135.994 103.159 136.709C103.165 137.336 103.174 137.878 103.186 138.335C103.197 138.792 103.212 139.179 103.229 139.495C103.253 139.812 103.279 140.069 103.309 140.269C103.344 140.468 103.382 140.623 103.423 140.734C103.47 140.84 103.522 140.913 103.581 140.954C103.646 140.989 103.716 141.007 103.792 141.007C103.927 141.007 104.062 140.948 104.196 140.831C104.337 140.708 104.486 140.529 104.645 140.295C104.803 140.055 104.973 139.762 105.154 139.416C105.342 139.07 105.547 138.672 105.77 138.221L105.866 138.036L106.227 138.309L106.13 138.493C105.79 139.179 105.491 139.747 105.233 140.198C104.976 140.644 104.738 141.001 104.521 141.271C104.311 141.54 104.108 141.73 103.915 141.842C103.722 141.947 103.52 142 103.309 142C103.104 142 102.925 141.95 102.772 141.851C102.626 141.745 102.5 141.584 102.395 141.367C102.289 141.145 102.204 140.863 102.14 140.523C102.075 140.178 102.025 139.765 101.99 139.284C101.785 139.694 101.574 140.066 101.357 140.4C101.141 140.734 100.915 141.021 100.681 141.262C100.452 141.496 100.212 141.678 99.96 141.807C99.708 141.936 99.4502 142 99.1865 142ZM100.461 135.25C100.139 135.25 99.8574 135.35 99.6172 135.549C99.377 135.742 99.1777 135.997 99.0195 136.313C98.8613 136.624 98.7441 136.976 98.668 137.368C98.5918 137.761 98.5537 138.153 98.5537 138.546C98.5537 138.868 98.5771 139.179 98.624 139.478C98.6768 139.771 98.7529 140.031 98.8525 140.26C98.958 140.488 99.084 140.67 99.2305 140.805C99.377 140.939 99.5469 141.007 99.7402 141.007C99.9277 141.007 100.109 140.96 100.285 140.866C100.467 140.772 100.646 140.623 100.821 140.418C100.997 140.207 101.176 139.938 101.357 139.609C101.539 139.275 101.732 138.871 101.938 138.396C101.926 138.115 101.917 137.816 101.911 137.5C101.905 137.178 101.902 136.835 101.902 136.472C101.773 136.091 101.577 135.792 101.313 135.575C101.056 135.358 100.771 135.25 100.461 135.25ZM104.152 130.117C104.152 129.848 104.12 129.66 104.056 129.555C103.997 129.449 103.927 129.396 103.845 129.396C103.704 129.396 103.59 129.534 103.502 129.81C103.414 130.079 103.344 130.445 103.291 130.908C103.244 131.371 103.209 131.907 103.186 132.517C103.168 133.126 103.159 133.768 103.159 134.441V135.408C103.341 134.816 103.496 134.283 103.625 133.809C103.754 133.334 103.856 132.892 103.933 132.481C104.009 132.071 104.064 131.676 104.1 131.295C104.135 130.914 104.152 130.521 104.152 130.117ZM106.323 138.133L106.235 138.309L106.147 138.493L105.787 138.221L105.875 138.036C106.021 137.737 106.142 137.438 106.235 137.14C106.335 136.835 106.414 136.551 106.473 136.287C106.537 136.023 106.59 135.792 106.631 135.593C106.672 135.394 106.713 135.25 106.754 135.162C106.789 135.092 106.839 135.036 106.903 134.995C106.974 134.948 107.044 134.91 107.114 134.881C107.19 134.852 107.261 134.831 107.325 134.819C107.396 134.808 107.445 134.802 107.475 134.802C107.604 134.802 107.688 134.828 107.729 134.881C107.776 134.934 107.8 135.027 107.8 135.162C107.8 135.227 107.785 135.388 107.756 135.646C107.732 135.897 107.703 136.217 107.668 136.604C107.639 136.984 107.609 137.415 107.58 137.896C107.557 138.37 107.545 138.862 107.545 139.372C107.545 139.741 107.562 140.034 107.598 140.251C107.633 140.462 107.677 140.62 107.729 140.726C107.788 140.831 107.85 140.898 107.914 140.928C107.984 140.957 108.055 140.972 108.125 140.972C108.219 140.972 108.324 140.931 108.441 140.849C108.559 140.767 108.696 140.623 108.854 140.418C109.013 140.207 109.194 139.926 109.399 139.574C109.604 139.217 109.845 138.766 110.12 138.221L110.217 138.036L110.577 138.309L110.48 138.493C110.258 138.927 110.035 139.354 109.812 139.776C109.596 140.198 109.373 140.573 109.145 140.901C108.922 141.229 108.696 141.496 108.468 141.701C108.239 141.9 108.011 142 107.782 142C107.542 142 107.334 141.953 107.158 141.859C106.988 141.76 106.845 141.599 106.728 141.376C106.616 141.153 106.531 140.86 106.473 140.497C106.42 140.128 106.394 139.674 106.394 139.135C106.394 138.982 106.394 138.824 106.394 138.66C106.394 138.49 106.399 138.314 106.411 138.133H106.323ZM108.125 133C108.125 133.205 108.055 133.378 107.914 133.519C107.779 133.653 107.609 133.721 107.404 133.721C107.205 133.721 107.035 133.653 106.895 133.519C106.754 133.378 106.684 133.205 106.684 133C106.684 132.801 106.754 132.631 106.895 132.49C107.035 132.35 107.205 132.279 107.404 132.279C107.609 132.279 107.779 132.35 107.914 132.49C108.055 132.631 108.125 132.801 108.125 133ZM115.543 139.82C115.543 140.154 115.572 140.436 115.631 140.664C115.689 140.893 115.792 141.007 115.938 141.007C116.026 141.007 116.12 140.966 116.22 140.884C116.325 140.796 116.445 140.655 116.58 140.462C116.715 140.269 116.867 140.02 117.037 139.715C117.213 139.404 117.412 139.026 117.635 138.581L117.898 138.036L118.259 138.309L117.995 138.854C117.749 139.346 117.518 139.788 117.301 140.181C117.09 140.567 116.888 140.896 116.694 141.165C116.501 141.435 116.311 141.643 116.123 141.789C115.941 141.93 115.76 142 115.578 142C115.385 142 115.221 141.947 115.086 141.842C114.957 141.736 114.849 141.593 114.761 141.411C114.673 141.224 114.605 141.01 114.559 140.77C114.512 140.523 114.479 140.263 114.462 139.987C114.321 140.269 114.166 140.532 113.996 140.778C113.826 141.019 113.647 141.229 113.46 141.411C113.278 141.593 113.088 141.736 112.889 141.842C112.689 141.947 112.49 142 112.291 142C111.998 142 111.714 141.938 111.438 141.815C111.163 141.692 110.917 141.505 110.7 141.253C110.489 141.001 110.319 140.685 110.19 140.304C110.062 139.917 109.997 139.463 109.997 138.941C109.997 138.332 110.076 137.775 110.234 137.271C110.393 136.762 110.606 136.325 110.876 135.962C111.146 135.593 111.456 135.309 111.808 135.109C112.159 134.904 112.528 134.802 112.915 134.802C113.149 134.802 113.366 134.854 113.565 134.96C113.765 135.065 113.938 135.194 114.084 135.347C114.236 135.493 114.362 135.651 114.462 135.821C114.562 135.985 114.629 136.126 114.664 136.243L114.77 135.391C114.781 135.279 114.834 135.186 114.928 135.109C115.027 135.033 115.136 134.975 115.253 134.934C115.37 134.887 115.484 134.854 115.596 134.837C115.707 134.813 115.786 134.802 115.833 134.802C115.903 134.802 115.95 134.813 115.974 134.837C115.997 134.86 116.009 134.907 116.009 134.978C116.009 135.065 115.982 135.244 115.93 135.514C115.883 135.777 115.83 136.117 115.771 136.533C115.719 136.943 115.666 137.427 115.613 137.983C115.566 138.54 115.543 139.152 115.543 139.82ZM114.576 137.5C114.576 137.23 114.535 136.967 114.453 136.709C114.371 136.445 114.26 136.214 114.119 136.015C113.979 135.81 113.814 135.646 113.627 135.522C113.445 135.399 113.252 135.338 113.047 135.338C112.795 135.338 112.558 135.411 112.335 135.558C112.118 135.698 111.928 135.9 111.764 136.164C111.605 136.422 111.479 136.735 111.386 137.104C111.292 137.468 111.245 137.869 111.245 138.309C111.245 139.188 111.383 139.858 111.658 140.321C111.934 140.778 112.3 141.007 112.757 141.007C112.956 141.007 113.161 140.928 113.372 140.77C113.589 140.605 113.785 140.374 113.961 140.075C114.143 139.771 114.289 139.401 114.4 138.968C114.518 138.534 114.576 138.045 114.576 137.5Z" fill="white"/>
<path d="M170 168H-7.09295e-06" stroke="#26B5F8" stroke-width="4"/>
<path d="M168 166L168 -2.38419e-07" stroke="#ED3049" stroke-width="4"/>
<path d="M0 2L166 2" stroke="#FFBF00" stroke-width="4"/>
<path d="M2 4L2 170" stroke="#8FF826" stroke-width="4"/>
</g>
<defs>
<clipPath id="clip0">
<rect width="170" height="170" fill="white"/>
</clipPath>
</defs>
</svg>
